<svg xmlns="http://www.w3.org/2000/svg" xmlns:xlink="http://www.w3.org/1999/xlink" width="736" zoomAndPan="magnify" viewBox="0 0 552 552.000001" height="736" preserveAspectRatio="xMidYMid meet" version="1.0"><defs><clipPath id="48c4328767"><path d="M 37.511719 294.667969 L 275.398438 294.667969 L 275.398438 532.550781 L 37.511719 532.550781 Z M 37.511719 294.667969 " clip-rule="nonzero"/></clipPath><clipPath id="c276f6570b"><path d="M 156.457031 294.667969 C 90.765625 294.667969 37.511719 347.917969 37.511719 413.609375 C 37.511719 479.300781 90.765625 532.550781 156.457031 532.550781 C 222.144531 532.550781 275.398438 479.300781 275.398438 413.609375 C 275.398438 347.917969 222.144531 294.667969 156.457031 294.667969 Z M 156.457031 294.667969 " clip-rule="nonzero"/></clipPath><clipPath id="75fcfce7cc"><path d="M 0.511719 0.667969 L 238.398438 0.667969 L 238.398438 238.550781 L 0.511719 238.550781 Z M 0.511719 0.667969 " clip-rule="nonzero"/></clipPath><clipPath id="aa169e4826"><path d="M 119.457031 0.667969 C 53.765625 0.667969 0.511719 53.917969 0.511719 119.609375 C 0.511719 185.300781 53.765625 238.550781 119.457031 238.550781 C 185.144531 238.550781 238.398438 185.300781 238.398438 119.609375 C 238.398438 53.917969 185.144531 0.667969 119.457031 0.667969 Z M 119.457031 0.667969 " clip-rule="nonzero"/></clipPath><clipPath id="1f0ee2d384"><rect x="0" width="239" y="0" height="239"/></clipPath><clipPath id="d50f7df327"><path d="M 155.582031 18.449219 L 431.800781 18.449219 L 431.800781 294.667969 L 155.582031 294.667969 Z M 155.582031 18.449219 " clip-rule="nonzero"/></clipPath><clipPath id="442d4e1e10"><path d="M 293.691406 18.449219 C 217.414062 18.449219 155.582031 80.28125 155.582031 156.558594 C 155.582031 232.832031 217.414062 294.667969 293.691406 294.667969 C 369.964844 294.667969 431.800781 232.832031 431.800781 156.558594 C 431.800781 80.28125 369.964844 18.449219 293.691406 18.449219 Z M 293.691406 18.449219 " clip-rule="nonzero"/></clipPath><clipPath id="c8daeb0082"><path d="M 0.582031 0.449219 L 276.800781 0.449219 L 276.800781 276.667969 L 0.582031 276.667969 Z M 0.582031 0.449219 " clip-rule="nonzero"/></clipPath><clipPath id="b6e3ceb590"><path d="M 138.691406 0.449219 C 62.414062 0.449219 0.582031 62.28125 0.582031 138.558594 C 0.582031 214.832031 62.414062 276.667969 138.691406 276.667969 C 214.964844 276.667969 276.800781 214.832031 276.800781 138.558594 C 276.800781 62.28125 214.964844 0.449219 138.691406 0.449219 Z M 138.691406 0.449219 " clip-rule="nonzero"/></clipPath><clipPath id="1114512f63"><rect x="0" width="277" y="0" height="277"/></clipPath><clipPath id="c6344909de"><path d="M 311.984375 294.667969 L 514.488281 294.667969 L 514.488281 497.171875 L 311.984375 497.171875 Z M 311.984375 294.667969 " clip-rule="nonzero"/></clipPath><clipPath id="93a3465017"><path d="M 413.234375 294.667969 C 357.316406 294.667969 311.984375 340 311.984375 395.917969 C 311.984375 451.839844 357.316406 497.171875 413.234375 497.171875 C 469.15625 497.171875 514.488281 451.839844 514.488281 395.917969 C 514.488281 340 469.15625 294.667969 413.234375 294.667969 Z M 413.234375 294.667969 " clip-rule="nonzero"/></clipPath><clipPath id="9aeef7fe7a"><path d="M 0.984375 0.667969 L 203.488281 0.667969 L 203.488281 203.171875 L 0.984375 203.171875 Z M 0.984375 0.667969 " clip-rule="nonzero"/></clipPath><clipPath id="8c6ed32cd2"><path d="M 102.234375 0.667969 C 46.316406 0.667969 0.984375 46 0.984375 101.917969 C 0.984375 157.839844 46.316406 203.171875 102.234375 203.171875 C 158.15625 203.171875 203.488281 157.839844 203.488281 101.917969 C 203.488281 46 158.15625 0.667969 102.234375 0.667969 Z M 102.234375 0.667969 " clip-rule="nonzero"/></clipPath><clipPath id="56c0d29528"><rect x="0" width="204" y="0" height="204"/></clipPath></defs><g clip-path="url(#48c4328767)"><g clip-path="url(#c276f6570b)"><g transform="matrix(1, 0, 0, 1, 37, 294)"><g clip-path="url(#1f0ee2d384)"><g clip-path="url(#75fcfce7cc)"><g clip-path="url(#aa169e4826)"><path fill="#a78bfa" d="M 0.511719 0.667969 L 238.398438 0.667969 L 238.398438 238.550781 L 0.511719 238.550781 Z M 0.511719 0.667969 " fill-opacity="1" fill-rule="nonzero"/></g></g></g></g></g></g><g clip-path="url(#d50f7df327)"><g clip-path="url(#442d4e1e10)"><g transform="matrix(1, 0, 0, 1, 155, 18)"><g clip-path="url(#1114512f63)"><g clip-path="url(#c8daeb0082)"><g clip-path="url(#b6e3ceb590)"><path fill="#a78bfa" d="M 0.582031 0.449219 L 276.800781 0.449219 L 276.800781 276.667969 L 0.582031 276.667969 Z M 0.582031 0.449219 " fill-opacity="1" fill-rule="nonzero"/></g></g></g></g></g></g><g clip-path="url(#c6344909de)"><g clip-path="url(#93a3465017)"><g transform="matrix(1, 0, 0, 1, 311, 294)"><g clip-path="url(#56c0d29528)"><g clip-path="url(#9aeef7fe7a)"><g clip-path="url(#8c6ed32cd2)"><path fill="#a78bfa" d="M 0.984375 0.667969 L 203.488281 0.667969 L 203.488281 203.171875 L 0.984375 203.171875 Z M 0.984375 0.667969 " fill-opacity="1" fill-rule="nonzero"/></g></g></g></g></g></g></svg>