<svg xmlns="http://www.w3.org/2000/svg" xmlns:xlink="http://www.w3.org/1999/xlink" width="1024" zoomAndPan="magnify" viewBox="0 0 768 767.999994" height="1024" preserveAspectRatio="xMidYMid meet" version="1.0"><defs><g/><clipPath id="de2afb36b0"><path d="M 46.5 0 L 721.5 0 C 747.179688 0 768 20.820312 768 46.5 L 768 721.5 C 768 747.179688 747.179688 768 721.5 768 L 46.5 768 C 20.820312 768 0 747.179688 0 721.5 L 0 46.5 C 0 20.820312 20.820312 0 46.5 0 Z M 46.5 0 " clip-rule="nonzero"/></clipPath><clipPath id="e566a2c76c"><path d="M 0 0 L 768 0 L 768 768 L 0 768 Z M 0 0 " clip-rule="nonzero"/></clipPath><clipPath id="abca0a275c"><path d="M 46.5 0 L 721.5 0 C 747.179688 0 768 20.820312 768 46.5 L 768 721.5 C 768 747.179688 747.179688 768 721.5 768 L 46.5 768 C 20.820312 768 0 747.179688 0 721.5 L 0 46.5 C 0 20.820312 20.820312 0 46.5 0 Z M 46.5 0 " clip-rule="nonzero"/></clipPath><clipPath id="0dccaaa050"><rect x="0" width="768" y="0" height="768"/></clipPath><clipPath id="3ea9b89a6f"><rect x="0" width="355" y="0" height="232"/></clipPath></defs><g clip-path="url(#de2afb36b0)"><g transform="matrix(1, 0, 0, 1, 0, -0.000000000000057351)"><g clip-path="url(#0dccaaa050)"><g clip-path="url(#e566a2c76c)"><g clip-path="url(#abca0a275c)"><rect x="-168.96" width="1105.92" fill="#161b22" height="1105.919991" y="-168.959999" fill-opacity="1"/></g></g></g></g><path stroke-linecap="butt" transform="matrix(0.75, 0, 0, 0.75, 0.000003, 0.00002)" fill="none" stroke-linejoin="miter" d="M 61.999995 -0.0000266667 L 961.999982 -0.0000266667 C 996.239565 -0.0000266667 1023.999981 27.76039 1023.999981 61.999972 L 1023.999981 961.999959 C 1023.999981 996.239542 996.239565 1023.999958 961.999982 1023.999958 L 61.999995 1023.999958 C 27.760412 1023.999958 -0.000004 996.239542 -0.000004 961.999959 L -0.000004 61.999972 C -0.000004 27.76039 27.760412 -0.0000266667 61.999995 -0.0000266667 Z M 61.999995 -0.0000266667 " stroke="#a98bfa" stroke-width="46" stroke-opacity="1" stroke-miterlimit="4"/></g><g transform="matrix(1, 0, 0, 1, 366, 521)"><g clip-path="url(#3ea9b89a6f)"><g fill="#a98bfa" fill-opacity="1"><g transform="translate(1.093609, 183.090091)"><g><path d="M 27.953125 -64.984375 L 58.421875 -64.984375 C 66.003906 -64.984375 72.238281 -67.550781 77.125 -72.6875 C 82.132812 -77.832031 84.640625 -84.257812 84.640625 -91.96875 C 84.640625 -99.6875 82.265625 -105.984375 77.515625 -110.859375 C 72.753906 -115.742188 66.390625 -118.1875 58.421875 -118.1875 L 27.953125 -118.1875 Z M 98.140625 -91.578125 C 98.140625 -80.140625 94.09375 -70.628906 86 -63.046875 C 78.03125 -55.585938 68.195312 -51.859375 56.5 -51.859375 L 27.953125 -51.859375 L 27.953125 0 L 14.453125 0 L 14.453125 -131.109375 L 56.5 -131.109375 C 68.0625 -131.109375 77.894531 -127.445312 86 -120.125 C 94.09375 -112.664062 98.140625 -103.148438 98.140625 -91.578125 Z M 98.140625 -91.578125 "/></g></g></g><g fill="#a98bfa" fill-opacity="1"><g transform="translate(103.087809, 183.090091)"><g><path d="M 50.90625 -61.890625 C 24.164062 -68.054688 10.796875 -79.5 10.796875 -96.21875 C 10.796875 -108.550781 15.101562 -117.804688 23.71875 -123.984375 C 32.332031 -130.023438 42.421875 -133.046875 53.984375 -133.046875 C 79.566406 -133.046875 94.734375 -123.53125 99.484375 -104.5 L 84.84375 -104.5 C 82.269531 -115.8125 71.984375 -121.46875 53.984375 -121.46875 C 41.390625 -121.46875 32.585938 -117.738281 27.578125 -110.28125 C 25.648438 -107.457031 24.6875 -103.925781 24.6875 -99.6875 C 24.6875 -91.582031 29.054688 -85.347656 37.796875 -80.984375 C 41.910156 -78.796875 50.648438 -75.96875 64.015625 -72.5 C 77.378906 -69.03125 87.082031 -65.171875 93.125 -60.921875 C 101.476562 -55.015625 105.65625 -46.726562 105.65625 -36.0625 C 105.65625 -22.820312 100.453125 -12.796875 90.046875 -5.984375 C 81.304688 -0.328125 70.507812 2.5 57.65625 2.5 C 28.601562 2.5 11.765625 -8.550781 7.140625 -30.65625 L 23.140625 -30.65625 C 25.578125 -16.769531 37.082031 -9.828125 57.65625 -9.828125 C 72.300781 -9.828125 82.519531 -13.878906 88.3125 -21.984375 C 90.625 -25.191406 91.78125 -29.5625 91.78125 -35.09375 C 91.78125 -40.488281 89.660156 -44.921875 85.421875 -48.390625 C 79.378906 -53.273438 67.875 -57.773438 50.90625 -61.890625 Z M 50.90625 -61.890625 "/></g></g></g><g fill="#a98bfa" fill-opacity="1"><g transform="translate(213.758247, 183.090091)"><g><path d="M 134.78125 -40.109375 C 129.894531 -27.503906 121.921875 -17.410156 110.859375 -9.828125 C 99.679688 -1.992188 87.410156 1.921875 74.046875 1.921875 C 55.921875 1.921875 40.429688 -4.757812 27.578125 -18.125 C 14.972656 -31.238281 8.671875 -46.984375 8.671875 -65.359375 C 8.671875 -74.484375 10.34375 -83.160156 13.6875 -91.390625 C 17.03125 -99.492188 21.660156 -106.628906 27.578125 -112.796875 C 40.429688 -126.160156 55.921875 -132.84375 74.046875 -132.84375 C 87.410156 -132.84375 99.617188 -129.050781 110.671875 -121.46875 C 121.722656 -113.757812 129.691406 -103.671875 134.578125 -91.203125 L 119.734375 -91.203125 C 112.660156 -104.179688 102.117188 -112.789062 88.109375 -117.03125 C 83.484375 -118.320312 78.148438 -118.96875 72.109375 -118.96875 C 66.066406 -118.96875 59.898438 -117.550781 53.609375 -114.71875 C 47.304688 -111.757812 41.84375 -107.84375 37.21875 -102.96875 C 27.1875 -92.550781 22.171875 -80.015625 22.171875 -65.359375 C 22.171875 -50.835938 27.1875 -38.367188 37.21875 -27.953125 C 47.363281 -17.285156 59.640625 -11.953125 74.046875 -11.953125 C 83.804688 -11.953125 92.800781 -14.523438 101.03125 -19.671875 C 109.132812 -24.804688 115.429688 -31.617188 119.921875 -40.109375 Z M 134.78125 -40.109375 "/></g></g></g></g></g></svg>